<!DOCTYPE svg PUBLIC "-//W3C//DTD SVG 20010904//EN" "http://www.w3.org/TR/2001/REC-SVG-20010904/DTD/svg10.dtd">
<svg version="1.0" xmlns="http://www.w3.org/2000/svg" width="512px" height="512px" viewBox="0 0 5120 5120" preserveAspectRatio="xMidYMid meet">
<g id="layer101" fill="#000101" stroke="none">
 <path d="M2315 5114 c-16 -2 -80 -11 -141 -19 -367 -51 -789 -221 -1099 -443 -216 -156 -451 -391 -607 -607 -220 -307 -382 -707 -445 -1098 -26 -160 -26 -614 0 -774 63 -391 225 -791 445 -1098 156 -216 391 -451 607 -607 307 -220 707 -382 1098 -445 160 -26 614 -26 774 0 327 52 662 174 928 336 150 92 192 122 330 237 479 399 792 953 892 1577 26 160 26 614 0 774 -63 391 -225 791 -445 1098 -122 170 -310 369 -472 501 -353 288 -773 476 -1225 550 -95 15 -564 29 -640 18z"/>
 </g>
<g id="layer102" fill="#35b3e1" stroke="none">
 <path d="M2315 5114 c-16 -2 -80 -11 -141 -19 -367 -51 -789 -221 -1099 -443 -216 -156 -451 -391 -607 -607 -220 -307 -382 -707 -445 -1098 -26 -160 -26 -614 0 -774 63 -391 225 -791 445 -1098 156 -216 391 -451 607 -607 307 -220 707 -382 1098 -445 160 -26 614 -26 774 0 327 52 662 174 928 336 150 92 192 122 330 237 479 399 792 953 892 1577 26 160 26 614 0 774 -63 391 -225 791 -445 1098 -122 170 -310 369 -472 501 -353 288 -773 476 -1225 550 -95 15 -564 29 -640 18z m397 -633 c162 -56 287 -200 317 -365 6 -33 11 -154 11 -269 0 -195 1 -212 21 -247 40 -71 139 -101 212 -64 18 9 101 57 184 106 84 49 178 98 209 108 264 91 548 -62 619 -335 29 -112 13 -234 -43 -339 -50 -94 -130 -161 -331 -276 -111 -64 -191 -116 -203 -133 -22 -31 -34 -101 -24 -141 12 -49 60 -86 243 -192 204 -118 259 -164 310 -260 104 -195 75 -409 -75 -563 -94 -96 -205 -141 -347 -141 -110 1 -175 25 -384 148 -96 56 -190 105 -208 108 -41 8 -111 -17 -141 -49 -37 -40 -42 -72 -42 -285 0 -229 -11 -305 -56 -393 -58 -115 -191 -220 -314 -248 -58 -13 -162 -13 -220 0 -130 30 -255 130 -315 253 -48 97 -55 147 -55 387 0 214 -5 246 -42 286 -30 32 -100 57 -140 49 -18 -3 -118 -55 -221 -115 -224 -130 -272 -146 -411 -139 -82 5 -105 10 -171 42 -205 97 -315 327 -260 541 22 81 71 170 126 225 29 29 116 87 232 154 183 106 231 143 243 192 10 40 -2 110 -24 141 -12 17 -92 69 -203 133 -201 115 -281 182 -331 276 -99 184 -68 401 79 555 127 133 321 180 497 119 31 -10 125 -59 208 -108 84 -49 167 -97 185 -106 73 -37 177 -6 214 64 17 31 19 60 19 245 0 239 11 312 61 405 41 78 87 130 151 173 50 33 143 71 198 81 48 9 165 -3 222 -23z"/>
 <path d="M2486 4168 c-76 -44 -80 -60 -86 -343 -5 -222 -8 -256 -27 -307 -43 -114 -127 -208 -235 -263 -86 -43 -164 -59 -254 -52 -94 7 -153 32 -359 152 -140 81 -179 99 -220 103 -41 3 -57 -1 -85 -20 -71 -48 -97 -122 -69 -195 18 -48 47 -70 232 -176 195 -111 271 -174 319 -263 103 -191 65 -433 -91 -576 -32 -29 -136 -98 -241 -159 -154 -89 -189 -113 -208 -145 -30 -51 -26 -126 8 -174 31 -44 100 -74 149 -65 20 4 115 52 211 108 96 55 198 109 225 120 260 100 559 -56 630 -328 11 -44 15 -114 15 -280 0 -193 3 -225 19 -261 41 -90 163 -116 237 -52 60 53 64 72 64 316 0 237 9 295 57 383 58 107 175 201 291 235 76 22 203 20 276 -6 33 -11 141 -67 241 -125 207 -119 237 -128 304 -93 66 34 86 67 86 141 0 92 -14 105 -226 227 -109 63 -205 126 -239 157 -156 144 -195 387 -92 576 49 91 125 153 319 264 221 126 243 148 243 236 0 52 -28 100 -80 135 -28 19 -44 23 -85 20 -41 -4 -80 -22 -220 -103 -206 -120 -265 -145 -359 -152 -220 -17 -425 124 -499 342 -6 16 -13 146 -16 287 -6 238 -7 259 -27 284 -53 72 -138 93 -208 52z"/>
 </g>

</svg>